<svg xmlns="http://www.w3.org/2000/svg" width="1280" height="620" viewBox="0 0 1280 620"><rect width="1280" height="620" rx="30" fill="#07111f"/><text x="60" y="78" fill="#fff" font-family="Arial" font-size="42" font-weight="800">Architecture</text><text x="62" y="115" fill="#9eb8c7" font-family="Arial" font-size="20">Japan Exchange Registry + 100+ Strategy Library + Mandatory Trailing Stop</text><g font-family="Arial" font-size="18"><rect x="70" y="160" width="190" height="82" rx="18" fill="#102a3a" stroke="#58c7ff"/><text x="105" y="210" fill="#fff" font-weight="700">Browser UI</text><rect x="310" y="160" width="190" height="82" rx="18" fill="#102a3a" stroke="#58c7ff"/><text x="360" y="210" fill="#fff" font-weight="700">FastAPI</text><rect x="550" y="160" width="230" height="82" rx="18" fill="#102a3a" stroke="#56f39a"/><text x="580" y="210" fill="#fff" font-weight="700">100+ Strategies</text><rect x="830" y="160" width="230" height="82" rx="18" fill="#102a3a" stroke="#ffd166"/><text x="870" y="210" fill="#fff" font-weight="700">Validation</text><rect x="310" y="330" width="230" height="82" rx="18" fill="#102a3a" stroke="#c792ff"/><text x="340" y="380" fill="#fff" font-weight="700">Japan Exchanges</text><rect x="590" y="330" width="230" height="82" rx="18" fill="#102a3a" stroke="#ff6b6b"/><text x="620" y="380" fill="#fff" font-weight="700">Risk + Trailing</text><rect x="870" y="330" width="230" height="82" rx="18" fill="#102a3a" stroke="#ff6b6b"/><text x="910" y="380" fill="#fff" font-weight="700">Paper / Live</text></g><g stroke="#9ee7ff" stroke-width="5"><line x1="260" y1="201" x2="310" y2="201"/><line x1="500" y1="201" x2="550" y2="201"/><line x1="780" y1="201" x2="830" y2="201"/><line x1="665" y1="242" x2="705" y2="330"/><line x1="540" y1="371" x2="590" y2="371"/><line x1="820" y1="371" x2="870" y2="371"/></g><text x="80" y="520" fill="#56f39a" font-family="Arial" font-size="22" font-weight="700">Best候補は検証で選ぶ。実売買はACKとSecretsが揃うまでブロック。</text></svg>
