<svg xmlns="http://www.w3.org/2000/svg" width="1280" height="620" viewBox="0 0 1280 620"><rect width="1280" height="620" rx="30" fill="#07111f"/><text x="60" y="78" fill="#fff" font-family="Arial" font-size="42" font-weight="800">Architecture</text><text x="62" y="115" fill="#9eb8c7" font-family="Arial" font-size="20">UI・API・戦略・検証・売買実行を分離</text><g font-family="Arial" font-size="18"><rect x="80" y="170" width="210" height="90" rx="18" fill="#102a3a" stroke="#58c7ff"/><text x="110" y="222" fill="#fff" font-weight="700">Browser UI</text><rect x="360" y="170" width="210" height="90" rx="18" fill="#102a3a" stroke="#58c7ff"/><text x="400" y="222" fill="#fff" font-weight="700">FastAPI</text><rect x="640" y="170" width="220" height="90" rx="18" fill="#102a3a" stroke="#56f39a"/><text x="675" y="222" fill="#fff" font-weight="700">Strategy Engine</text><rect x="930" y="170" width="240" height="90" rx="18" fill="#102a3a" stroke="#ffd166"/><text x="965" y="222" fill="#fff" font-weight="700">Backtest / Validate</text><rect x="360" y="340" width="210" height="90" rx="18" fill="#102a3a" stroke="#c792ff"/><text x="410" y="392" fill="#fff" font-weight="700">CCXT Data</text><rect x="640" y="340" width="220" height="90" rx="18" fill="#102a3a" stroke="#ff6b6b"/><text x="675" y="392" fill="#fff" font-weight="700">Risk + Trailing</text><rect x="930" y="340" width="240" height="90" rx="18" fill="#102a3a" stroke="#ff6b6b"/><text x="965" y="392" fill="#fff" font-weight="700">Paper / Live</text></g><g stroke="#9ee7ff" stroke-width="5"><line x1="290" y1="215" x2="360" y2="215"/><line x1="570" y1="215" x2="640" y2="215"/><line x1="860" y1="215" x2="930" y2="215"/><line x1="750" y1="260" x2="750" y2="340"/><line x1="570" y1="385" x2="640" y2="385"/><line x1="860" y1="385" x2="930" y2="385"/></g><text x="80" y="520" fill="#56f39a" font-family="Arial" font-size="22" font-weight="700">共通ルール: ポジション保有中はTrailing Stopを常時更新</text></svg>
