<svg xmlns="http://www.w3.org/2000/svg" width="1280" height="620" viewBox="0 0 1280 620"><rect width="1280" height="620" rx="34" fill="#07111f"/><rect x="45" y="45" width="1190" height="530" rx="28" fill="#0d1f31" stroke="#244d63"/><text x="80" y="100" fill="#fff" font-family="Arial" font-size="38" font-weight="800">Market Snapshot + Simulation UI</text><text x="82" y="135" fill="#9eb8c7" font-family="Arial" font-size="20">大量現在価格取得と5年シミュレーションをWebから実行</text><rect x="80" y="175" width="1120" height="85" rx="18" fill="#102a3a" stroke="#1f4960"/><text x="110" y="228" fill="#9ee7ff" font-family="Arial" font-size="20">Strategy</text><text x="250" y="228" fill="#9ee7ff" font-family="Arial" font-size="20">Trailing Stop %</text><text x="455" y="228" fill="#9ee7ff" font-family="Arial" font-size="20">Market Pages</text><text x="650" y="228" fill="#9ee7ff" font-family="Arial" font-size="20">Simulation Coins</text><rect x="120" y="310" width="220" height="95" rx="18" fill="#102a3a" stroke="#56f39a"/><text x="150" y="350" fill="#fff" font-family="Arial" font-size="24" font-weight="800">Fetch Prices</text><text x="150" y="380" fill="#9eb8c7" font-family="Arial" font-size="17">save snapshot JSON</text><rect x="390" y="310" width="220" height="95" rx="18" fill="#102a3a" stroke="#ffd166"/><text x="420" y="350" fill="#fff" font-family="Arial" font-size="24" font-weight="800">5Y Simulation</text><text x="420" y="380" fill="#9eb8c7" font-family="Arial" font-size="17">past + future scenarios</text><rect x="660" y="310" width="220" height="95" rx="18" fill="#102a3a" stroke="#58c7ff"/><text x="690" y="350" fill="#fff" font-family="Arial" font-size="24" font-weight="800">Result JSON</text><text x="690" y="380" fill="#9eb8c7" font-family="Arial" font-size="17">recorded under data/</text><rect x="930" y="310" width="220" height="95" rx="18" fill="#102a3a" stroke="#ff6b6b"/><text x="960" y="350" fill="#fff" font-family="Arial" font-size="24" font-weight="800">Risk Check</text><text x="960" y="380" fill="#9eb8c7" font-family="Arial" font-size="17">not a forecast</text><text x="100" y="500" fill="#56f39a" font-family="Arial" font-size="22" font-weight="700">画面右のJSON欄に保存先・上位価格・シミュレーション結果が表示される</text></svg>
