<svg xmlns="http://www.w3.org/2000/svg" width="1280" height="620" viewBox="0 0 1280 620"><rect width="1280" height="620" rx="30" fill="#07111f"/><rect x="40" y="40" width="1200" height="540" rx="26" fill="#0d1f31" stroke="#244d63"/><text x="70" y="95" fill="#fff" font-family="Arial" font-size="38" font-weight="800">Dashboard UI</text><text x="70" y="128" fill="#9eb8c7" font-family="Arial" font-size="19">戦略比較・検証・Trailing Stopを1画面で確認</text><rect x="70" y="160" width="1140" height="72" rx="16" fill="#102a3a" stroke="#1f4960"/><text x="95" y="204" fill="#9ee7ff" font-family="Arial" font-size="20">Strategy ▼</text><text x="270" y="204" fill="#9ee7ff" font-family="Arial" font-size="20">Symbol</text><text x="430" y="204" fill="#9ee7ff" font-family="Arial" font-size="20">Trailing Stop %</text><rect x="650" y="176" width="130" height="36" rx="18" fill="#56f39a"/><text x="678" y="201" fill="#04111a" font-family="Arial" font-size="16" font-weight="700">Backtest</text><rect x="800" y="176" width="150" height="36" rx="18" fill="#58c7ff"/><text x="822" y="201" fill="#04111a" font-family="Arial" font-size="16" font-weight="700">Forward</text><rect x="970" y="176" width="210" height="36" rx="18" fill="#ffd166"/><text x="996" y="201" fill="#04111a" font-family="Arial" font-size="16" font-weight="700">Realtime Validate</text><rect x="70" y="260" width="200" height="90" rx="16" fill="#102a3a" stroke="#1f4960"/><text x="95" y="293" fill="#9eb8c7" font-family="Arial" font-size="16">Total Return</text><text x="95" y="330" fill="#56f39a" font-family="Arial" font-size="30" font-weight="800">+18.4%</text><rect x="295" y="260" width="200" height="90" rx="16" fill="#102a3a" stroke="#1f4960"/><text x="320" y="293" fill="#9eb8c7" font-family="Arial" font-size="16">Trailing Stops</text><text x="320" y="330" fill="#ffd166" font-family="Arial" font-size="30" font-weight="800">4</text><polyline points="90,500 170,460 250,470 330,420 410,440 490,390 570,365 650,350 730,310 810,330 890,275" fill="none" stroke="#56f39a" stroke-width="5"/><rect x="920" y="380" width="260" height="140" rx="16" fill="#081927" stroke="#244d63"/><text x="945" y="420" fill="#fff" font-family="Arial" font-size="22" font-weight="700">Latest stop</text><text x="945" y="458" fill="#9eb8c7" font-family="Arial" font-size="17">trailing_stop_pct: 5%</text><text x="945" y="488" fill="#9eb8c7" font-family="Arial" font-size="17">stop armed after BUY</text></svg>
