<svg xmlns="http://www.w3.org/2000/svg" width="1280" height="420" viewBox="0 0 1280 420"><defs><linearGradient id="bg" x1="0" x2="1" y1="0" y2="1"><stop offset="0" stop-color="#06111f"/><stop offset=".55" stop-color="#0a2b3f"/><stop offset="1" stop-color="#07111f"/></linearGradient><linearGradient id="g" x1="0" x2="1"><stop offset="0" stop-color="#56f39a"/><stop offset="1" stop-color="#58c7ff"/></linearGradient></defs><rect width="1280" height="420" rx="32" fill="url(#bg)"/><circle cx="1070" cy="72" r="42" fill="#f7931a"/><text x="1055" y="88" font-size="46" fill="#fff" font-family="Arial" font-weight="700">₿</text><path d="M730 255 C780 180 830 225 880 145 S990 90 1050 170 S1140 250 1220 120" fill="none" stroke="url(#g)" stroke-width="7"/><path d="M730 305 C790 260 850 310 900 235 S1020 205 1080 260 S1160 330 1230 240" fill="none" stroke="#ff6b6b" stroke-width="4" opacity=".75"/><g font-family="Arial"><text x="60" y="95" fill="#9ee7ff" font-size="24" font-weight="700">Selectable Strategy + Mandatory Trailing Stop</text><text x="60" y="160" fill="#fff" font-size="66" font-weight="800">Crypto Auto Trade</text><text x="64" y="205" fill="#d8f6ff" font-size="24">戦略選択・バックテスト・フォワードテスト・リアルタイム検証・紙取引・実売買</text><rect x="60" y="250" width="190" height="40" rx="20" fill="#113d2f" stroke="#56f39a"/><text x="82" y="277" fill="#fff" font-size="16">Strategy UI</text><rect x="270" y="250" width="190" height="40" rx="20" fill="#122f47" stroke="#58c7ff"/><text x="292" y="277" fill="#fff" font-size="16">Backtest</text><rect x="480" y="250" width="230" height="40" rx="20" fill="#33283e" stroke="#c792ff"/><text x="502" y="277" fill="#fff" font-size="16">Trailing Stop Always</text><text x="60" y="335" fill="#9eb8c7" font-size="18">BUY後は必ずトレーリングストップを持ち、検証結果を画面で確認</text></g></svg>
