<svg xmlns="http://www.w3.org/2000/svg" width="1280" height="720" viewBox="0 0 1280 720"><defs><linearGradient id="bg" x1="0" x2="1" y1="0" y2="1"><stop offset="0" stop-color="#06111f"/><stop offset="1" stop-color="#0b3148"/></linearGradient></defs><rect width="1280" height="720" rx="34" fill="url(#bg)"/><text x="56" y="78" fill="#fff" font-family="Arial" font-size="44" font-weight="800">価格取得の流れ</text><text x="58" y="116" fill="#9eb8c7" font-family="Arial" font-size="21">大量現在価格・取引所OHLCV・5年履歴を分けて扱う</text><g font-family="Arial"><rect x="70" y="175" width="310" height="130" rx="24" fill="#102a3a" stroke="#56f39a" stroke-width="3"/><text x="105" y="220" fill="#fff" font-size="25" font-weight="800">Mass Prices</text><text x="105" y="255" fill="#9eb8c7" font-size="19">CoinGecko markets</text><text x="105" y="282" fill="#9eb8c7" font-size="19">250+ coins per page</text><rect x="485" y="175" width="310" height="130" rx="24" fill="#102a3a" stroke="#58c7ff" stroke-width="3"/><text x="520" y="220" fill="#fff" font-size="25" font-weight="800">Exchange OHLCV</text><text x="520" y="255" fill="#9eb8c7" font-size="19">CCXT fetchOHLCV</text><text x="520" y="282" fill="#9eb8c7" font-size="19">BTC/USDT 1h etc.</text><rect x="900" y="175" width="310" height="130" rx="24" fill="#102a3a" stroke="#ffd166" stroke-width="3"/><text x="935" y="220" fill="#fff" font-size="25" font-weight="800">5Y History</text><text x="935" y="255" fill="#9eb8c7" font-size="19">Market chart range</text><text x="935" y="282" fill="#9eb8c7" font-size="19">daily candles</text><rect x="170" y="430" width="300" height="120" rx="24" fill="#081927" stroke="#244d63"/><text x="205" y="475" fill="#fff" font-size="24" font-weight="800">JSON Storage</text><text x="205" y="510" fill="#9eb8c7" font-size="18">data/market_snapshots</text><rect x="520" y="430" width="300" height="120" rx="24" fill="#081927" stroke="#244d63"/><text x="555" y="475" fill="#fff" font-size="24" font-weight="800">Backtest Engine</text><text x="555" y="510" fill="#9eb8c7" font-size="18">strategies + trailing stop</text><rect x="870" y="430" width="300" height="120" rx="24" fill="#081927" stroke="#244d63"/><text x="905" y="475" fill="#fff" font-size="24" font-weight="800">Simulation Store</text><text x="905" y="510" fill="#9eb8c7" font-size="18">data/simulation_results</text></g><g stroke="#9ee7ff" stroke-width="5" opacity=".8"><line x1="225" y1="305" x2="320" y2="430"/><line x1="640" y1="305" x2="670" y2="430"/><line x1="1055" y1="305" x2="1020" y2="430"/><line x1="470" y1="490" x2="520" y2="490"/><line x1="820" y1="490" x2="870" y2="490"/></g><text x="90" y="650" fill="#56f39a" font-family="Arial" font-size="22" font-weight="700">現在価格は大量snapshot、売買検証はOHLCV、5年検証は日足履歴 + シナリオ</text></svg>
