<svg xmlns="http://www.w3.org/2000/svg" width="1280" height="620" viewBox="0 0 1280 620"><defs><linearGradient id="bg" x1="0" x2="1"><stop offset="0" stop-color="#07111f"/><stop offset="1" stop-color="#0e334a"/></linearGradient></defs><rect width="1280" height="620" rx="34" fill="url(#bg)"/><text x="56" y="78" fill="#fff" font-family="Arial" font-size="42" font-weight="800">Best候補の選び方</text><text x="58" y="116" fill="#9eb8c7" font-family="Arial" font-size="21">100+戦略を同じ条件で検証し、scoreで並べる</text><g font-family="Arial" font-size="18"><rect x="60" y="190" width="145" height="95" rx="18" fill="#102a3a" stroke="#58c7ff"/><text x="86" y="230" fill="#fff" font-weight="700">1 List</text><text x="86" y="260" fill="#9eb8c7">100+候補</text><rect x="230" y="190" width="145" height="95" rx="18" fill="#102a3a" stroke="#56f39a"/><text x="256" y="230" fill="#fff" font-weight="700">2 Backtest</text><text x="256" y="260" fill="#9eb8c7">過去検証</text><rect x="400" y="190" width="145" height="95" rx="18" fill="#102a3a" stroke="#ffd166"/><text x="426" y="230" fill="#fff" font-weight="700">3 Forward</text><text x="426" y="260" fill="#9eb8c7">後半確認</text><rect x="570" y="190" width="165" height="95" rx="18" fill="#102a3a" stroke="#c792ff"/><text x="596" y="230" fill="#fff" font-weight="700">4 Rolling</text><text x="596" y="260" fill="#9eb8c7">300回検証</text><rect x="760" y="190" width="145" height="95" rx="18" fill="#102a3a" stroke="#ff6b6b"/><text x="786" y="230" fill="#fff" font-weight="700">5 Score</text><text x="786" y="260" fill="#9eb8c7">順位化</text><rect x="930" y="190" width="145" height="95" rx="18" fill="#102a3a" stroke="#56f39a"/><text x="956" y="230" fill="#fff" font-weight="700">6 Best</text><text x="956" y="260" fill="#9eb8c7">候補選定</text><rect x="1100" y="190" width="130" height="95" rx="18" fill="#102a3a" stroke="#ffd166"/><text x="1125" y="230" fill="#fff" font-weight="700">7 Paper</text><text x="1125" y="260" fill="#9eb8c7">実運用前</text></g><g stroke="#9ee7ff" stroke-width="4"><line x1="205" y1="237" x2="230" y2="237"/><line x1="375" y1="237" x2="400" y2="237"/><line x1="545" y1="237" x2="570" y2="237"/><line x1="735" y1="237" x2="760" y2="237"/><line x1="905" y1="237" x2="930" y2="237"/><line x1="1075" y1="237" x2="1100" y2="237"/></g><rect x="180" y="390" width="920" height="120" rx="24" fill="#081927" stroke="#244d63"/><text x="225" y="435" fill="#fff" font-family="Arial" font-size="28" font-weight="800">Selection Score</text><text x="225" y="475" fill="#9eb8c7" font-family="Arial" font-size="20">average return + Sharpe-like - drawdown penalty + healthy-rate</text><text x="225" y="510" fill="#56f39a" font-family="Arial" font-size="20" font-weight="700">利益保証ではなく、現在データ上の最有力候補を選ぶためのもの</text></svg>
