<svg xmlns="http://www.w3.org/2000/svg" width="1280" height="720" viewBox="0 0 1280 720"><defs><linearGradient id="bg" x1="0" x2="1" y1="0" y2="1"><stop offset="0" stop-color="#06111f"/><stop offset="1" stop-color="#0b3148"/></linearGradient></defs><rect width="1280" height="720" rx="34" fill="url(#bg)"/><text x="56" y="78" fill="#fff" font-family="Arial" font-size="44" font-weight="800">100+ Strategy Variants とは？</text><text x="58" y="116" fill="#9eb8c7" font-family="Arial" font-size="21">5つの基本戦略を、パラメータ違いで100種類以上に展開する仕組み</text><circle cx="640" cy="245" r="95" fill="#081927" stroke="#56f39a" stroke-width="5"/><text x="580" y="232" fill="#fff" font-family="Arial" font-size="26" font-weight="800">5 Core</text><text x="560" y="267" fill="#9eb8c7" font-family="Arial" font-size="22">Families</text><g font-family="Arial"><rect x="80" y="410" width="210" height="125" rx="20" fill="#102a3a" stroke="#56f39a"/><text x="105" y="450" fill="#fff" font-size="22" font-weight="700">Regime Guard</text><text x="105" y="484" fill="#9eb8c7" font-size="18">18 variants</text><text x="105" y="512" fill="#56f39a" font-size="16">defensive</text><rect x="315" y="410" width="210" height="125" rx="20" fill="#102a3a" stroke="#58c7ff"/><text x="340" y="450" fill="#fff" font-size="22" font-weight="700">EMA Cross</text><text x="340" y="484" fill="#9eb8c7" font-size="18">24 variants</text><text x="340" y="512" fill="#58c7ff" font-size="16">trend follow</text><rect x="550" y="410" width="210" height="125" rx="20" fill="#102a3a" stroke="#ffd166"/><text x="575" y="450" fill="#fff" font-size="22" font-weight="700">Donchian</text><text x="575" y="484" fill="#9eb8c7" font-size="18">24 variants</text><text x="575" y="512" fill="#ffd166" font-size="16">breakout</text><rect x="785" y="410" width="210" height="125" rx="20" fill="#102a3a" stroke="#c792ff"/><text x="810" y="450" fill="#fff" font-size="22" font-weight="700">RSI</text><text x="810" y="484" fill="#9eb8c7" font-size="18">24 variants</text><text x="810" y="512" fill="#c792ff" font-size="16">mean reversion</text><rect x="1020" y="410" width="190" height="125" rx="20" fill="#102a3a" stroke="#ff6b6b"/><text x="1045" y="450" fill="#fff" font-size="22" font-weight="700">Bollinger</text><text x="1045" y="484" fill="#9eb8c7" font-size="18">24 variants</text><text x="1045" y="512" fill="#ff6b6b" font-size="16">volatility</text></g><g stroke="#9ee7ff" stroke-width="4" opacity=".75"><line x1="610" y1="335" x2="185" y2="410"/><line x1="625" y1="340" x2="420" y2="410"/><line x1="640" y1="340" x2="655" y2="410"/><line x1="655" y1="340" x2="890" y2="410"/><line x1="670" y1="335" x2="1115" y2="410"/></g><rect x="235" y="595" width="810" height="70" rx="22" fill="#081927" stroke="#244d63"/><text x="285" y="640" fill="#56f39a" font-family="Arial" font-size="24" font-weight="800">Family = 考え方 / Variant = 設定値違い</text></svg>
