<svg xmlns="http://www.w3.org/2000/svg" width="1280" height="620" viewBox="0 0 1280 620"><defs><linearGradient id="bg" x1="0" x2="1"><stop offset="0" stop-color="#07111f"/><stop offset="1" stop-color="#0b2f45"/></linearGradient></defs><rect width="1280" height="620" rx="30" fill="url(#bg)"/><text x="56" y="76" fill="#fff" font-family="Arial" font-size="42" font-weight="800">100+ Strategy Variants</text><text x="58" y="112" fill="#9eb8c7" font-family="Arial" font-size="20">Core families are expanded into parameterized, testable variants</text><g font-family="Arial"><rect x="70" y="170" width="210" height="110" rx="18" fill="#102a3a" stroke="#56f39a"/><text x="95" y="210" fill="#fff" font-size="22" font-weight="700">Regime Guard</text><text x="95" y="245" fill="#9eb8c7" font-size="18">18 variants</text><rect x="310" y="170" width="210" height="110" rx="18" fill="#102a3a" stroke="#58c7ff"/><text x="335" y="210" fill="#fff" font-size="22" font-weight="700">EMA Cross</text><text x="335" y="245" fill="#9eb8c7" font-size="18">24 variants</text><rect x="550" y="170" width="210" height="110" rx="18" fill="#102a3a" stroke="#ffd166"/><text x="575" y="210" fill="#fff" font-size="22" font-weight="700">Donchian</text><text x="575" y="245" fill="#9eb8c7" font-size="18">24 variants</text><rect x="790" y="170" width="210" height="110" rx="18" fill="#102a3a" stroke="#c792ff"/><text x="815" y="210" fill="#fff" font-size="22" font-weight="700">RSI</text><text x="815" y="245" fill="#9eb8c7" font-size="18">24 variants</text><rect x="1030" y="170" width="190" height="110" rx="18" fill="#102a3a" stroke="#ff6b6b"/><text x="1055" y="210" fill="#fff" font-size="22" font-weight="700">Bollinger</text><text x="1055" y="245" fill="#9eb8c7" font-size="18">24 variants</text><rect x="150" y="365" width="980" height="140" rx="24" fill="#081927" stroke="#244d63"/><text x="205" y="410" fill="#fff" font-size="28" font-weight="800">Pick Best</text><text x="205" y="450" fill="#9eb8c7" font-size="20">Rolling validation ranks candidates by return, drawdown penalty, Sharpe-like score, and healthy rate.</text><text x="205" y="486" fill="#56f39a" font-size="20" font-weight="700">Best candidate is data-dependent, not a profit guarantee.</text></g></svg>
