<svg xmlns="http://www.w3.org/2000/svg" width="1280" height="560" viewBox="0 0 1280 560"><defs><linearGradient id="bg" x1="0" x2="1"><stop offset="0" stop-color="#07111f"/><stop offset="1" stop-color="#0d2f42"/></linearGradient></defs><rect width="1280" height="560" rx="30" fill="url(#bg)"/><text x="48" y="66" fill="#fff" font-family="Arial" font-size="42" font-weight="800">ユーザーが選べる5つの戦略</text><text x="50" y="105" fill="#9eb8c7" font-family="Arial" font-size="20">どの戦略でも、BUY後は必ずTrailing Stopが有効になります</text><g font-family="Arial" font-size="18"><rect x="50" y="160" width="220" height="125" rx="18" fill="#102a3a" stroke="#56f39a"/><text x="72" y="198" fill="#fff" font-weight="700">Regime Guard</text><text x="72" y="226" fill="#9eb8c7">相場判定 + 防御</text><text x="72" y="254" fill="#56f39a">初期推奨</text><rect x="300" y="160" width="220" height="125" rx="18" fill="#102a3a" stroke="#58c7ff"/><text x="322" y="198" fill="#fff" font-weight="700">EMA Cross</text><text x="322" y="226" fill="#9eb8c7">トレンド追随</text><text x="322" y="254" fill="#58c7ff">分かりやすい</text><rect x="550" y="160" width="220" height="125" rx="18" fill="#102a3a" stroke="#ffd166"/><text x="572" y="198" fill="#fff" font-weight="700">Donchian</text><text x="572" y="226" fill="#9eb8c7">高値ブレイク</text><text x="572" y="254" fill="#ffd166">勢い重視</text><rect x="800" y="160" width="220" height="125" rx="18" fill="#102a3a" stroke="#c792ff"/><text x="822" y="198" fill="#fff" font-weight="700">RSI Reversion</text><text x="822" y="226" fill="#9eb8c7">売られすぎ反発</text><text x="822" y="254" fill="#c792ff">レンジ向き</text><rect x="1030" y="160" width="200" height="125" rx="18" fill="#102a3a" stroke="#ff6b6b"/><text x="1052" y="198" fill="#fff" font-weight="700">Bollinger</text><text x="1052" y="226" fill="#9eb8c7">ボラ拡大</text><text x="1052" y="254" fill="#ff6b6b">急伸狙い</text></g><rect x="150" y="355" width="980" height="130" rx="22" fill="#081927" stroke="#244d63"/><text x="200" y="395" fill="#fff" font-family="Arial" font-size="28" font-weight="800">共通の出口ルール</text><text x="200" y="433" fill="#9eb8c7" font-family="Arial" font-size="21">Entry → Peak Price Update → Trailing Stop follows → Price crosses stop → Exit</text><text x="200" y="465" fill="#56f39a" font-family="Arial" font-size="21" font-weight="700">入口は戦略ごとに変える。出口の防御は全戦略で必ず持つ。</text></svg>
